<?xml version="1.0" standalone="no"?>
<!DOCTYPE svg PUBLIC "-//W3C//DTD SVG 20010904//EN"
 "http://www.w3.org/TR/2001/REC-SVG-20010904/DTD/svg10.dtd">
<svg version="1.0" xmlns="http://www.w3.org/2000/svg"
 width="640.000000pt" height="640.000000pt" viewBox="0 0 640.000000 640.000000"
 preserveAspectRatio="xMidYMid meet">

<g transform="translate(0.000000,640.000000) scale(0.100000,-0.100000)"
fill="#000000" stroke="none">
<path d="M3945 5287 c-131 -44 -241 -161 -334 -358 -76 -161 -151 -392 -151
-463 0 -17 -6 -26 -15 -26 -9 0 -66 -14 -128 -31 -128 -36 -289 -103 -366
-154 l-53 -35 -102 25 c-163 40 -369 65 -535 65 -219 0 -283 -25 -335 -133
-51 -105 -38 -235 39 -393 52 -107 214 -314 352 -451 l123 -122 -56 -158 c-30
-87 -66 -187 -80 -223 -13 -36 -24 -71 -24 -77 0 -12 -28 -17 -150 -28 -219
-20 -469 -137 -526 -247 -25 -48 -11 -79 69 -148 74 -63 247 -244 247 -258 -1
-9 -169 -132 -270 -197 -41 -27 -84 -56 -95 -66 -18 -15 -144 -96 -447 -288
-82 -51 -86 -55 -68 -68 27 -19 57 -9 236 78 77 38 145 69 152 69 18 0 15 -95
-3 -130 -8 -16 -28 -37 -43 -45 -25 -15 -18 -16 113 -11 77 3 171 13 210 21
95 20 120 19 79 -3 -40 -22 -194 -135 -189 -140 6 -6 111 57 130 78 25 28 32
25 45 -14 15 -45 1 -73 -64 -126 -26 -22 -41 -40 -33 -40 8 0 55 15 103 34
101 39 178 54 189 37 3 -6 -15 -41 -40 -77 l-47 -66 -24 23 c-23 22 -25 22
-96 7 -123 -26 -686 -194 -676 -202 5 -4 239 21 322 34 91 15 315 69 340 82
17 9 18 7 12 -37 -14 -87 -36 -155 -81 -245 -25 -49 -42 -90 -38 -90 3 0 63
30 132 67 69 37 203 106 296 153 94 47 196 101 228 119 31 18 57 29 57 24 0
-5 -9 -43 -20 -84 -25 -94 -25 -124 0 -149 30 -30 90 -25 211 15 57 20 172 54
255 75 183 49 301 95 419 165 101 61 247 174 347 271 l67 65 30 -22 c23 -17
43 -21 93 -21 34 0 76 5 92 11 24 10 36 9 64 -5 52 -25 153 -15 234 23 77 37
199 133 271 216 70 80 161 214 176 259 8 25 26 44 61 67 28 18 82 68 121 111
236 260 357 545 362 855 2 106 -1 131 -26 215 -43 145 -63 219 -111 415 -58
235 -84 310 -141 400 -58 94 -182 226 -266 284 l-64 44 0 201 c0 186 -2 209
-28 309 -15 59 -41 141 -58 182 -58 140 -172 275 -267 318 -58 25 -171 32
-227 14z m181 -152 c95 -55 183 -193 223 -349 24 -89 41 -250 41 -374 l0 -82
-60 30 c-46 23 -60 35 -60 53 -3 173 -12 327 -22 360 -25 87 -82 156 -128 157
-70 0 -127 -76 -172 -229 -31 -107 -36 -161 -14 -161 7 0 20 -8 27 -17 12 -15
12 -16 -1 -8 -12 6 -12 5 -3 -5 6 -7 9 -19 6 -26 -3 -8 5 -18 18 -24 20 -9 18
-10 -16 -6 -102 13 -256 17 -315 8 -36 -5 -67 -8 -69 -6 -9 8 85 271 133 371
89 184 162 276 251 319 58 29 97 26 161 -11z m-149 -820 c402 -70 679 -247
799 -509 25 -56 71 -219 129 -466 18 -80 46 -179 60 -220 36 -101 42 -209 21
-338 -49 -292 -205 -574 -393 -711 -66 -47 -197 -105 -293 -127 -104 -25 -200
-4 -236 51 -15 23 -12 30 60 178 42 84 76 158 76 165 0 6 15 14 33 17 90 20
349 166 340 193 -7 20 -28 15 -126 -32 -104 -50 -224 -99 -278 -114 -29 -8
-45 -6 -76 8 -72 32 -120 109 -187 300 l-41 115 -80 -3 c-174 -6 -377 -53
-596 -139 l-118 -45 -105 21 c-160 32 -361 62 -458 68 -49 3 -88 9 -88 13 0 9
76 223 128 360 39 103 41 105 85 125 l45 20 -111 85 c-204 156 -402 371 -473
515 -58 118 -76 254 -39 295 54 60 336 51 668 -21 76 -17 157 -37 180 -45 86
-31 116 -33 140 -14 22 19 22 20 4 51 -10 17 -16 33 -15 34 14 12 158 78 217
99 244 88 496 112 728 71z m-147 -1629 c0 -87 158 -319 235 -347 19 -7 35 -15
35 -19 0 -6 -169 -352 -175 -358 -2 -2 -24 10 -48 27 -153 105 -253 269 -318
518 -44 172 -48 164 96 189 173 31 175 31 175 -10z m-319 -349 c35 -104 83
-199 139 -272 47 -63 168 -185 182 -185 34 0 -166 -148 -342 -254 -96 -57
-359 -190 -459 -231 l-54 -22 -96 60 c-53 33 -126 80 -163 103 -74 48 -98 54
-98 25 0 -45 356 -301 418 -301 38 0 24 -15 -37 -39 -72 -28 -88 -25 -182 32
-193 119 -363 317 -446 521 -32 77 -69 183 -94 266 l-19 65 23 18 c12 9 78 55
147 101 81 55 132 96 144 118 11 18 60 75 110 126 l91 93 55 -7 c30 -4 63 -8
74 -8 17 0 17 -1 1 -11 -9 -5 -64 -40 -122 -78 -57 -37 -117 -74 -132 -81 -20
-11 -30 -27 -39 -63 -7 -26 -18 -55 -25 -63 -7 -9 -63 -54 -124 -100 -110 -82
-121 -93 -105 -116 20 -30 51 -21 139 41 146 104 149 108 168 180 12 43 23 65
33 65 8 0 42 18 76 41 96 65 286 151 476 217 96 33 182 62 190 65 12 3 17 -17
27 -105 8 -67 25 -145 44 -201z m-1421 -443 c0 -2 -9 -20 -19 -41 -11 -21 -23
-54 -26 -73 -5 -28 -19 -44 -68 -81 -104 -79 -330 -198 -375 -199 -16 0 25 61
125 186 44 56 115 127 180 182 l107 90 38 -31 c21 -17 38 -32 38 -33z m160
-134 c39 -107 95 -208 171 -310 32 -44 59 -82 59 -85 0 -3 -27 -5 -61 -5 -56
0 -64 3 -91 32 -71 77 -141 205 -179 328 -15 50 -19 75 -11 78 6 2 26 14 44
26 18 13 34 22 35 22 1 -1 16 -40 33 -86z m1840 31 c66 -11 198 -2 268 18 37
11 39 6 14 -30 -63 -94 -218 -234 -297 -270 -40 -18 -115 -26 -115 -11 0 4 7
16 16 27 8 11 19 37 25 58 13 49 -10 133 -46 167 l-25 24 26 27 c24 25 29 26
48 14 11 -7 50 -18 86 -24z m-213 -111 c67 -40 64 -89 -8 -155 -43 -39 -78
-44 -132 -21 -39 16 -63 43 -71 76 -5 22 2 30 71 73 43 26 84 47 93 47 8 0 29
-9 47 -20z m-1778 -169 l23 -43 -30 -32 c-16 -17 -39 -47 -52 -66 -34 -52 -49
-60 -107 -60 -30 0 -70 -7 -90 -15 -89 -38 -77 -1 38 109 49 47 89 89 89 95 0
5 -12 24 -27 42 -15 18 -23 34 -18 36 6 2 35 19 65 38 l55 34 16 -47 c9 -26
26 -67 38 -91z m1421 -17 c0 -3 -21 -30 -47 -60 -48 -55 -52 -56 -67 -7 -6 20
-1 26 46 47 56 26 68 29 68 20z m-1310 -130 c53 -55 85 -72 145 -81 35 -4 45
-10 43 -22 -3 -16 -413 -229 -423 -220 -5 6 177 369 185 369 3 0 25 -21 50
-46z m1103 26 c-4 -5 -37 -25 -72 -45 -61 -34 -66 -35 -95 -21 -17 8 -40 16
-51 19 l-20 5 20 1 c11 1 63 14 115 30 89 26 123 30 103 11z m-273 -244 c0 -2
-7 -7 -16 -10 -8 -3 -12 -2 -9 4 6 10 25 14 25 6z"/>
<path d="M4191 4926 c-9 -11 -8 -15 5 -20 20 -8 39 7 30 23 -10 15 -21 14 -35
-3z"/>
<path d="M4351 4644 c0 -11 3 -14 6 -6 3 7 2 16 -1 19 -3 4 -6 -2 -5 -13z"/>
<path d="M4363 4575 c0 -22 2 -30 4 -17 2 12 2 30 0 40 -3 9 -5 -1 -4 -23z"/>
<path d="M2250 4087 c-35 -17 -36 -55 -6 -116 14 -28 26 -63 26 -78 0 -17 8
-33 20 -41 11 -6 33 -38 49 -71 32 -62 169 -216 202 -226 11 -4 26 -1 34 5 11
9 26 5 68 -19 30 -17 61 -31 69 -31 36 0 107 114 108 173 0 15 -6 41 -14 56
-19 36 -121 131 -177 163 -45 27 -246 98 -276 98 -9 0 -14 3 -10 6 8 8 86 -10
202 -46 116 -36 168 -59 249 -110 37 -24 69 -40 72 -38 2 3 -9 23 -26 46 -61
85 -257 190 -411 222 -110 23 -145 24 -179 7z"/>
<path d="M4185 3913 c-41 -6 -55 -20 -55 -54 0 -40 24 -59 76 -59 76 0 125 39
108 84 -12 31 -53 40 -129 29z"/>
<path d="M4272 3733 c-46 -22 -63 -52 -64 -111 0 -80 56 -170 141 -224 63 -39
104 -37 148 7 34 34 35 38 31 94 -3 40 -15 80 -37 125 -55 112 -134 151 -219
109z m131 -61 c29 -32 37 -67 21 -91 -23 -32 -61 -27 -84 12 -24 39 -25 55 -3
79 20 23 45 23 66 0z"/>
<path d="M3535 3698 c-75 -26 -142 -110 -114 -144 25 -31 143 -5 222 48 34 24
39 81 8 98 -24 13 -76 12 -116 -2z"/>
<path d="M3590 3509 c-127 -51 -134 -229 -14 -353 43 -45 70 -56 131 -56 57 0
95 26 117 80 36 89 8 194 -72 275 -58 58 -108 75 -162 54z m96 -77 c18 -13 44
-56 44 -74 0 -22 -34 -58 -55 -58 -9 0 -27 11 -40 25 -27 26 -34 82 -13 103
13 13 47 16 64 4z"/>
<path d="M4615 3196 c-85 -27 -168 -87 -226 -164 -116 -153 -85 -323 72 -401
54 -27 73 -31 141 -31 136 0 246 49 313 140 117 160 70 374 -100 451 -47 22
-140 24 -200 5z"/>
<path d="M2915 2389 c-32 -11 -83 -36 -112 -56 -113 -75 -158 -162 -158 -308
0 -69 5 -89 32 -147 57 -122 155 -204 273 -229 105 -22 251 27 353 121 187
170 139 478 -92 594 -96 49 -201 57 -296 25z m250 -79 c154 -75 230 -255 167
-395 -26 -57 -98 -135 -157 -169 -143 -84 -320 -39 -410 104 -53 84 -64 178
-34 291 17 68 103 153 186 184 60 23 186 16 248 -15z"/>
<path d="M2924 2231 c-131 -80 -163 -259 -66 -371 81 -95 201 -97 311 -4 42
35 81 113 81 163 0 86 -57 176 -135 212 -54 25 -150 25 -191 0z"/>
<path d="M7 63 c-4 -3 -7 -19 -7 -35 0 -21 5 -28 20 -28 16 0 20 7 20 35 0 33
-16 46 -33 28z"/>
</g>
</svg>
