<?xml version="1.0" standalone="no"?>
<!DOCTYPE svg PUBLIC "-//W3C//DTD SVG 20010904//EN"
 "http://www.w3.org/TR/2001/REC-SVG-20010904/DTD/svg10.dtd">
<svg version="1.0" xmlns="http://www.w3.org/2000/svg"
 width="691.000000pt" height="259.000000pt" viewBox="0 0 691.000000 259.000000"
 preserveAspectRatio="xMidYMid meet">

<g transform="translate(0.000000,259.000000) scale(0.100000,-0.100000)"
fill="#000000" stroke="none">
<path d="M1492 2208 c-51 -32 -98 -111 -134 -224 l-33 -102 -60 -17 c-33 -9
-84 -29 -113 -45 -54 -29 -54 -29 -115 -15 -93 21 -225 29 -273 16 -31 -8 -44
-19 -57 -46 -21 -44 -21 -62 -1 -122 21 -61 60 -118 141 -204 l65 -69 -33 -97
-34 -98 -55 -7 c-109 -13 -220 -72 -220 -115 0 -9 29 -45 65 -81 36 -35 63
-68 60 -73 -9 -13 -155 -115 -264 -184 -104 -66 -106 -83 -5 -36 37 17 68 31
70 31 10 0 3 -57 -8 -69 -11 -10 -1 -11 47 -6 33 3 73 8 90 12 25 5 28 3 18
-9 -7 -8 -9 -19 -3 -28 14 -23 73 37 65 67 -3 15 1 26 17 37 25 18 29 15 48
-32 12 -31 11 -35 -14 -61 -20 -21 -41 -30 -76 -35 -26 -4 -54 -14 -61 -23
-12 -15 -12 -16 6 -9 29 12 95 20 95 12 0 -4 -7 -18 -16 -31 -12 -19 -22 -23
-43 -19 -27 6 -237 -47 -271 -67 -24 -15 175 18 223 36 24 10 23 -36 -3 -92
-10 -24 -16 -43 -13 -43 3 0 63 29 134 65 70 36 133 65 138 65 7 0 7 -8 1 -26
-15 -38 -12 -62 8 -68 24 -8 242 57 318 94 33 16 91 56 130 88 l69 58 85 -7
c64 -6 93 -4 119 7 53 22 114 77 157 141 21 32 60 79 86 105 104 102 168 241
168 365 0 70 -65 336 -101 410 -11 23 -49 69 -85 102 l-64 60 0 85 c0 233
-137 389 -268 304z m131 -58 c51 -44 79 -118 85 -222 5 -89 1 -100 -30 -75
-11 8 -17 36 -21 89 -7 95 -27 137 -65 138 -30 0 -84 -132 -63 -153 28 -28 11
-37 -70 -37 l-81 0 7 28 c18 72 71 178 110 218 50 53 80 56 128 14z m-31 -329
c42 -11 98 -31 125 -44 46 -24 129 -102 151 -143 19 -37 92 -339 92 -384 -1
-159 -109 -328 -243 -378 -70 -27 -98 -27 -127 -4 l-22 18 33 72 c18 40 37 72
42 72 26 0 143 67 134 77 -3 2 -24 -5 -48 -17 -23 -12 -60 -28 -82 -36 -59
-21 -89 1 -126 91 -28 66 -31 70 -63 71 -48 1 -145 -21 -220 -50 l-66 -24
-108 19 c-60 10 -121 19 -136 19 -16 0 -28 2 -28 4 0 24 66 185 81 196 18 15
16 18 -54 77 -94 78 -161 166 -177 233 -11 46 -10 54 4 68 23 23 153 21 261
-3 136 -30 148 -31 141 -7 -6 16 2 23 50 42 131 53 258 63 386 31z m-97 -687
c9 -25 35 -64 57 -87 l40 -42 -33 -67 c-18 -38 -38 -68 -44 -68 -17 0 -82 66
-101 102 -24 46 -54 138 -54 164 0 16 7 25 23 28 12 3 31 7 42 9 46 10 52 7
70 -39z m-157 -44 c15 -82 52 -159 101 -213 23 -24 41 -47 41 -50 0 -14 -134
-99 -236 -150 l-111 -55 -69 43 c-38 24 -71 41 -74 38 -8 -8 58 -61 118 -95
28 -16 52 -32 52 -34 0 -3 -12 -9 -26 -14 -22 -9 -34 -6 -74 20 -61 39 -132
115 -160 171 -25 48 -60 145 -60 165 0 7 25 32 55 54 30 22 75 63 101 90 35
37 54 50 75 50 16 0 29 -3 29 -7 0 -5 -25 -23 -55 -41 -30 -18 -55 -38 -55
-45 0 -6 -26 -35 -57 -64 -57 -54 -66 -80 -16 -48 43 27 74 58 84 82 11 28 80
68 209 120 58 24 108 43 111 43 3 0 11 -27 17 -60z m-581 -286 c-8 -16 -23
-36 -33 -46 -28 -24 -143 -82 -150 -75 -10 10 42 76 105 134 54 50 57 51 74
34 17 -17 18 -21 4 -47z m92 -46 c16 -35 41 -79 55 -98 l27 -35 -28 -3 c-34
-5 -54 18 -96 107 -29 61 -30 64 -12 77 10 8 20 14 22 14 1 0 16 -28 32 -62z
m783 40 c21 1 47 4 58 7 12 4 20 2 20 -5 0 -16 -83 -96 -120 -115 -35 -18 -72
-13 -52 7 17 17 15 49 -4 76 -21 30 -9 45 29 36 16 -3 48 -6 69 -6z m-124 -50
c20 -20 14 -46 -14 -65 -23 -15 -29 -15 -52 -2 -37 21 -37 36 0 59 38 23 49
25 66 8z m-176 -100 c-18 -19 -22 -20 -22 -6 0 9 8 21 17 27 27 15 29 3 5 -21z
m-500 -33 c16 -14 36 -25 44 -25 8 0 14 -4 14 -10 0 -11 -160 -94 -167 -86 -5
5 66 146 74 146 3 0 18 -11 35 -25z m418 5 c-26 -20 -51 -25 -64 -13 -7 8 47
31 74 32 10 0 6 -6 -10 -19z"/>
<path d="M833 1728 c-23 -27 95 -212 132 -206 5 1 23 -2 39 -7 34 -9 56 12 56
56 0 32 -51 81 -104 100 -20 7 -36 16 -36 20 0 11 57 -7 114 -37 l51 -26 -23
25 c-50 53 -205 104 -229 75z"/>
<path d="M1621 1661 c-19 -12 -6 -41 17 -41 11 0 25 7 33 16 10 13 10 17 -2
25 -18 11 -30 11 -48 0z"/>
<path d="M1668 1593 c-10 -2 -21 -15 -24 -29 -13 -52 40 -119 89 -112 42 6 30
101 -17 133 -11 8 -23 14 -26 14 -3 -1 -13 -3 -22 -6z m56 -36 c8 -12 7 -20
-2 -29 -16 -16 -47 13 -38 37 7 19 25 16 40 -8z"/>
<path d="M1342 1564 c-27 -19 -29 -44 -2 -44 32 0 70 22 70 42 0 23 -37 24
-68 2z"/>
<path d="M1366 1485 c-26 -27 -24 -76 6 -117 15 -21 28 -28 53 -28 57 0 73 60
32 121 -26 39 -65 49 -91 24z m64 -20 c15 -18 9 -50 -9 -50 -19 0 -36 29 -28
49 8 20 21 21 37 1z"/>
<path d="M1753 1341 c-27 -20 -47 -45 -58 -74 -15 -41 -16 -47 -1 -76 67 -128
287 -36 252 105 -20 77 -117 100 -193 45z"/>
<path d="M1106 1035 c-96 -34 -133 -129 -85 -215 43 -77 120 -100 199 -60 57
29 85 74 85 137 0 63 -23 99 -85 131 -51 25 -61 26 -114 7z m120 -34 c33 -20
64 -75 64 -113 0 -59 -75 -128 -140 -128 -117 0 -172 152 -84 229 28 25 43 31
82 31 28 0 59 -8 78 -19z"/>
<path d="M1089 954 c-72 -76 26 -202 107 -136 50 40 56 86 18 131 -34 41 -89
43 -125 5z"/>
<path d="M2284 2070 c-40 -16 -39 -98 1 -114 9 -3 78 -6 154 -6 145 0 161 -5
161 -47 0 -26 -64 -199 -82 -220 -7 -9 -43 -13 -127 -13 -143 0 -166 -9 -166
-65 0 -51 25 -65 120 -65 75 0 95 -9 95 -44 0 -12 -45 -139 -101 -283 -56
-144 -99 -269 -96 -277 5 -14 30 -16 165 -16 139 0 161 2 174 18 8 9 62 141
118 292 57 151 110 283 118 293 18 20 121 24 140 5 9 -9 12 -88 12 -293 0
-227 3 -285 14 -301 14 -18 29 -19 276 -19 289 0 280 -2 280 67 0 50 -18 58
-129 58 -125 0 -121 -9 -121 250 0 257 -3 250 115 250 46 0 95 4 109 10 23 8
26 15 26 55 0 40 -3 47 -26 55 -14 6 -150 10 -313 10 -301 0 -311 1 -311 45 0
11 19 67 43 125 l42 105 258 5 c281 5 277 4 277 65 0 64 38 60 -612 62 -326 1
-603 -2 -614 -7z"/>
<path d="M3726 2064 c-14 -14 -16 -46 -14 -237 3 -219 3 -222 26 -232 31 -14
28 -30 -20 -86 -29 -35 -38 -53 -31 -60 7 -7 62 -9 153 -7 l142 3 66 73 67 73
191 -1 c137 0 195 -4 206 -12 8 -7 34 -39 57 -70 23 -32 51 -60 64 -63 12 -3
78 -4 147 -3 146 3 151 8 94 83 l-38 48 22 15 c22 14 22 19 22 241 0 163 -3
230 -12 239 -9 9 -149 12 -569 12 -496 0 -559 -2 -573 -16z m402 -90 c26 -8
39 -48 22 -69 -14 -17 -82 -20 -111 -5 -26 14 -24 45 3 64 24 17 49 20 86 10z
m416 -4 c18 -6 26 -17 26 -33 0 -32 -18 -47 -56 -47 -50 0 -64 9 -64 41 0 43
40 60 94 39z m-396 -192 c19 -19 14 -55 -10 -72 -63 -44 -154 17 -102 68 18
19 94 22 112 4z m411 -2 c21 -26 9 -69 -21 -80 -42 -15 -82 3 -86 37 -5 39 14
57 58 57 21 0 43 -6 49 -14z"/>
<path d="M5167 2073 c-16 -4 -37 -40 -37 -64 0 -5 9 -18 20 -29 20 -20 33 -20
570 -20 537 0 550 0 570 20 24 24 25 49 6 76 -14 18 -32 19 -563 20 -301 1
-556 0 -566 -3z"/>
<path d="M5056 1684 c-19 -18 -21 -75 -4 -92 8 -8 49 -12 118 -12 113 0 150
-12 150 -50 0 -11 -48 -123 -106 -251 -107 -233 -129 -303 -104 -334 18 -22
1201 -23 1219 -1 9 11 3 50 -30 178 -23 89 -49 171 -57 181 -13 14 -33 17
-132 17 -148 0 -148 0 -120 -108 23 -92 25 -133 8 -150 -9 -9 -73 -12 -228
-12 -197 0 -218 2 -233 18 -10 10 -17 24 -17 30 0 26 192 448 212 465 18 15
49 17 317 17 218 0 300 3 309 12 7 7 12 28 12 48 0 20 -5 41 -12 48 -9 9 -167
12 -649 12 -566 0 -639 -2 -653 -16z"/>
<path d="M3746 1378 c-22 -32 -24 -414 -2 -444 13 -17 27 -19 139 -19 90 0
128 4 140 14 15 12 17 41 17 232 0 206 -1 219 -19 229 -11 5 -74 10 -140 10
-113 0 -121 -1 -135 -22z"/>
<path d="M4556 1384 c-14 -13 -16 -48 -16 -228 0 -186 2 -215 17 -227 12 -10
50 -14 140 -14 112 0 126 2 139 19 11 16 14 64 14 226 0 188 -2 208 -18 223
-26 24 -253 25 -276 1z"/>
<path d="M3400 728 c0 -12 60 -221 64 -226 12 -11 23 13 45 98 12 46 24 86 27
89 11 11 26 -20 46 -95 21 -79 32 -103 44 -92 8 9 63 222 58 227 -9 9 -17 -10
-37 -90 -12 -45 -26 -81 -32 -81 -5 0 -21 39 -34 86 -27 96 -44 108 -61 44
-38 -146 -52 -162 -71 -76 -19 86 -30 118 -39 118 -6 0 -10 -1 -10 -2z"/>
<path d="M3740 636 c0 -106 7 -121 64 -132 78 -14 120 44 114 161 -5 94 -23
72 -26 -32 -3 -103 -13 -117 -76 -115 -46 1 -56 24 -56 124 0 52 -4 88 -10 88
-6 0 -10 -38 -10 -94z"/>
<path d="M4070 642 c0 -102 -11 -125 -55 -120 -22 2 -31 9 -33 26 -3 22 -22
32 -22 11 0 -23 21 -47 46 -53 38 -10 61 1 73 36 14 39 15 188 1 188 -6 0 -10
-36 -10 -88z"/>
<path d="M4150 614 c0 -88 3 -115 13 -112 8 3 13 38 15 116 2 95 0 112 -13
112 -13 0 -15 -18 -15 -116z"/>
<path d="M4250 615 l0 -115 80 0 c47 0 80 4 80 10 0 6 -30 10 -70 10 l-70 0 0
45 0 45 65 0 c37 0 65 4 65 10 0 6 -28 10 -65 10 l-65 0 0 45 0 44 73 4 72 3
-82 2 -83 2 0 -115z"/>
<path d="M4470 615 l0 -115 70 0 c40 0 70 4 70 10 0 6 -27 10 -60 10 l-60 0 0
105 c0 63 -4 105 -10 105 -6 0 -10 -45 -10 -115z"/>
<path d="M4660 615 c0 -70 4 -115 10 -115 6 0 10 45 10 115 0 70 -4 115 -10
115 -6 0 -10 -45 -10 -115z"/>
<path d="M4750 616 c0 -71 4 -116 10 -116 6 0 10 38 10 95 0 71 3 93 13 90 6
-3 37 -46 67 -95 30 -50 60 -90 67 -90 10 0 13 28 13 115 0 70 -4 115 -10 115
-6 0 -10 -35 -10 -85 0 -62 -3 -85 -12 -85 -7 1 -36 38 -64 83 -74 119 -84
116 -84 -27z"/>
<path d="M4990 615 c0 -70 4 -115 10 -115 6 0 10 20 10 45 0 37 4 47 26 61 28
19 25 21 78 -53 34 -47 56 -66 56 -46 0 3 -17 29 -39 57 -58 78 -58 73 -10
122 60 61 28 56 -38 -7 -29 -27 -58 -47 -63 -44 -6 3 -10 26 -10 51 0 24 -4
44 -10 44 -6 0 -10 -45 -10 -115z"/>
<path d="M2360 620 c0 -7 163 -10 470 -10 307 0 470 3 470 10 0 7 -163 10
-470 10 -307 0 -470 -3 -470 -10z"/>
<path d="M5280 620 c0 -7 163 -10 470 -10 307 0 470 3 470 10 0 7 -163 10
-470 10 -307 0 -470 -3 -470 -10z"/>
</g>
</svg>
